# xmcd
#
# Track frame offsets: 
#        183
#        13920
#        42503
#        69628
#
# Disc length: 1118 seconds
#
# Revision: 2
# Processed by: cddbd v1.5.2PL0 Copyright (c) Steve Scherf et al.
# Submitted via: ExactAudioCopy v1.3
#
DISCID=34045c04
DTITLE=INXS - Never Tear Us Apart
DYEAR=1988
DGENRE=Rock
TTITLE0=Never Tear Us Apart
TTITLE1=Different World (12'' Version)
TTITLE2=Guns In The Sky (Kick Ass Remix)
TTITLE3=This Time
EXTD=
EXTT0=
EXTT1=
EXTT2=
EXTT3=
PLAYORDER=
